<svg width="20" height="21" viewBox="0 0 20 21" fill="none" xmlns="http://www.w3.org/2000/svg">
<path d="M6 15.9853H14M9.0177 1.74935L2.23539 7.02448C1.78202 7.3771 1.55534 7.55341 1.39203 7.77421C1.24737 7.9698 1.1396 8.19013 1.07403 8.4244C1 8.68887 1 8.97605 1 9.5504V16.7853C1 17.9054 1 18.4655 1.21799 18.8933C1.40973 19.2696 1.71569 19.5756 2.09202 19.7673C2.51984 19.9853 3.07989 19.9853 4.2 19.9853H15.8C16.9201 19.9853 17.4802 19.9853 17.908 19.7673C18.2843 19.5756 18.5903 19.2696 18.782 18.8933C19 18.4655 19 17.9054 19 16.7853V9.5504C19 8.97605 19 8.68887 18.926 8.4244C18.8604 8.19013 18.7526 7.9698 18.608 7.77421C18.4447 7.55341 18.218 7.3771 17.7646 7.02448L10.9823 1.74935C10.631 1.4761 10.4553 1.33947 10.2613 1.28695C10.0902 1.24061 9.9098 1.24061 9.73865 1.28695C9.54468 1.33947 9.36902 1.4761 9.0177 1.74935Z" stroke="#667085" stroke-width="2" stroke-linecap="round" stroke-linejoin="round"/>
</svg>
