<svg width="1440" height="892" viewBox="0 0 1440 892" fill="none" xmlns="http://www.w3.org/2000/svg">
<path d="M1018.82 589.508L1006.42 577.929C1005.6 577.164 1004.32 577.205 1003.55 578.02C1002.78 578.835 1002.82 580.117 1003.64 580.881L1016.04 592.46C1016.86 593.224 1018.15 593.184 1018.92 592.368C1019.68 591.553 1019.64 590.272 1018.82 589.508Z" fill="#5465FF"/>
<path d="M1006.9 592.754L1018.53 580.408C1019.3 579.593 1019.26 578.312 1018.44 577.548C1017.62 576.783 1016.33 576.824 1015.57 577.64L1003.93 589.985C1003.17 590.8 1003.21 592.081 1004.03 592.845C1004.84 593.61 1006.13 593.569 1006.9 592.754Z" fill="#5465FF"/>
<path d="M69.8246 183.508L57.4234 171.928C56.6043 171.164 55.318 171.204 54.5501 172.02C53.782 172.835 53.8234 174.116 54.6421 174.88L67.0432 186.46C67.862 187.224 69.1486 187.183 69.9167 186.368C70.6846 185.552 70.6433 184.272 69.8246 183.508Z" fill="#FF5833"/>
<path d="M57.8991 186.754L69.5315 174.408C70.2995 173.593 70.2586 172.312 69.4398 171.548C68.6206 170.783 67.3343 170.824 66.5664 171.639L54.9338 183.985C54.1659 184.8 54.2072 186.081 55.0256 186.845C55.8445 187.61 57.1311 187.569 57.8991 186.754Z" fill="#FF5833"/>
<path d="M1020.6 771.725L1022.36 770.712L1013.82 756.01C1013.46 755.384 1012.79 754.999 1012.06 755C1011.34 755 1010.66 755.387 1010.3 756.013L1001.79 770.723L993.271 785.435C992.909 786.062 992.91 786.833 993.273 787.459C993.637 788.084 994.308 788.47 995.034 788.469L1012.09 788.455L1029.14 788.447C1029.87 788.447 1030.54 788.06 1030.9 787.434C1031.26 786.808 1031.26 786.037 1030.9 785.411L1022.36 770.712L1020.6 771.725L1018.84 772.738L1025.62 784.401L1012.08 784.408L998.552 784.419L1005.31 772.744L1012.07 761.072L1018.84 772.738L1020.6 771.725Z" fill="#FF5833"/>
<path d="M393.569 341.431L395.533 341.953L399.937 325.546C400.125 324.848 399.924 324.102 399.41 323.592C398.896 323.081 398.147 322.882 397.446 323.069L380.979 327.479H380.98L364.505 331.884C363.804 332.072 363.257 332.618 363.069 333.317C362.882 334.014 363.083 334.76 363.596 335.271L375.665 347.265L375.664 347.264L387.73 359.266C388.244 359.776 388.993 359.976 389.694 359.788C390.396 359.601 390.944 359.055 391.131 358.356L395.533 341.953L393.569 341.431L391.605 340.908L388.112 353.925L378.538 344.401L378.537 344.401L368.961 334.883L382.035 331.388H382.035L395.1 327.888L391.605 340.908L393.569 341.431Z" fill="#5465FF"/>
<path d="M1002.91 348.905H1000.88C1000.88 351.91 999.661 354.611 997.683 356.582C995.703 358.55 992.99 359.761 989.972 359.763C986.954 359.761 984.241 358.55 982.26 356.582C980.283 354.611 979.066 351.909 979.065 348.905C979.066 345.901 980.283 343.199 982.26 341.228C984.241 339.26 986.954 338.049 989.972 338.047C992.99 338.049 995.703 339.26 997.683 341.228C999.661 343.199 1000.88 345.901 1000.88 348.905H1002.91H1004.94C1004.94 340.672 998.241 334.002 989.972 334C981.703 334.002 975.002 340.672 975 348.905C975.002 357.139 981.703 363.809 989.972 363.81C998.241 363.809 1004.94 357.138 1004.94 348.905H1002.91Z" fill="#D57CFF"/>
<path d="M15.0654 714.906C15.0664 711.898 16.2787 709.195 18.2459 707.225C20.2168 705.258 22.9145 704.049 25.9134 704.047C28.9123 704.049 31.6094 705.258 33.5798 707.225C35.5469 709.195 36.7595 711.898 36.7604 714.906C36.7604 716.023 37.6704 716.929 38.7931 716.929C39.9155 716.929 40.8258 716.023 40.8258 714.906C40.8268 710.798 39.1558 707.061 36.4612 704.369C33.7698 701.674 30.0274 699.999 25.9134 700C21.7994 699.999 18.0563 701.674 15.3649 704.369C12.67 707.061 10.9988 710.798 11 714.906C11 716.023 11.91 716.929 13.0327 716.929C14.1552 716.929 15.0654 716.023 15.0654 714.906Z" fill="#5465FF"/>
<path d="M454.971 69.6463C451.951 69.6455 449.236 68.4378 447.257 66.4797C445.281 64.5175 444.067 61.8317 444.065 58.8464C444.067 55.8611 445.281 53.1753 447.257 51.2139C449.236 49.2558 451.951 48.049 454.971 48.0473C456.094 48.0473 457.004 47.1415 457.004 46.0237C457.004 44.9058 456.094 44 454.971 44C450.847 43.9992 447.093 45.6626 444.388 48.3452C441.681 51.0245 439.999 54.7505 440 58.8464C439.999 62.9423 441.681 66.6683 444.388 69.3476C447.092 72.0302 450.847 73.6944 454.971 73.6936C456.094 73.6936 457.004 72.7878 457.004 71.6699C457.004 70.5521 456.094 69.6463 454.971 69.6463Z" fill="#D57CFF"/>
<path d="M11.0327 375.024V377.047H34.7365V398.624H13.0654V375.024H11.0327H9V400.647C9 401.18 9.21709 401.701 9.59517 402.078C9.97407 402.455 10.4977 402.671 11.0327 402.671H36.7692C37.305 402.671 37.8286 402.455 38.2067 402.078C38.5856 401.701 38.8019 401.18 38.8019 400.647V375.024C38.8019 374.491 38.5856 373.97 38.2067 373.593C37.8286 373.216 37.305 373 36.7692 373H11.0327C10.4977 373 9.97407 373.216 9.59517 373.593C9.21709 373.97 9 374.491 9 375.024H11.0327Z" fill="#2AB458"/>
<path d="M171.852 306.095C171.449 306.092 171.207 306.019 170.961 305.896C170.748 305.787 170.527 305.619 170.283 305.359C169.854 304.909 169.389 304.17 168.902 303.281C168.157 301.95 167.377 300.292 166.047 298.822C165.381 298.09 164.554 297.41 163.536 296.927C162.52 296.443 161.33 296.173 160.033 296.175C158.91 296.175 158 297.082 158 298.199C158 299.317 158.91 300.223 160.033 300.223C160.694 300.224 161.185 300.333 161.603 300.5C161.969 300.649 162.286 300.848 162.597 301.114C163.14 301.575 163.655 302.261 164.156 303.1C164.919 304.356 165.6 305.911 166.665 307.348C167.202 308.062 167.862 308.762 168.74 309.294C169.612 309.829 170.7 310.149 171.852 310.143C172.974 310.143 173.884 309.237 173.884 308.119C173.884 307.001 172.974 306.095 171.852 306.095Z" fill="#5465FF"/>
<path d="M195.49 306.095C195.087 306.092 194.844 306.019 194.599 305.896C194.386 305.787 194.165 305.619 193.921 305.359C193.492 304.909 193.028 304.17 192.54 303.281C191.795 301.95 191.015 300.292 189.686 298.822C189.019 298.091 188.192 297.411 187.174 296.928C186.159 296.443 184.969 296.174 183.671 296.176C182.549 296.176 181.639 297.083 181.639 298.2C181.639 299.318 182.549 300.224 183.671 300.224C184.333 300.225 184.824 300.334 185.242 300.501C185.607 300.649 185.924 300.849 186.236 301.115C186.779 301.575 187.293 302.262 187.794 303.101C188.557 304.357 189.238 305.912 190.303 307.348C190.84 308.062 191.5 308.762 192.378 309.294C193.25 309.829 194.339 310.149 195.49 310.143C196.613 310.143 197.523 309.237 197.523 308.119C197.523 307.001 196.613 306.095 195.49 306.095Z" fill="#5465FF"/>
<path d="M171.851 310.143C172.853 310.147 173.809 309.909 174.614 309.49C175.32 309.124 175.905 308.64 176.391 308.122C177.241 307.208 177.825 306.198 178.363 305.231C179.156 303.776 179.863 302.407 180.663 301.545C181.062 301.111 181.461 300.799 181.918 300.581C182.377 300.366 182.911 300.226 183.671 300.224C184.794 300.224 185.704 299.318 185.704 298.2C185.704 297.083 184.794 296.176 183.671 296.176C182.54 296.175 181.493 296.377 180.57 296.752C179.762 297.078 179.056 297.53 178.457 298.044C177.406 298.946 176.67 300.008 176.057 301.026C175.15 302.556 174.469 304.028 173.782 304.924C173.444 305.375 173.131 305.667 172.852 305.836C172.566 306.001 172.313 306.089 171.851 306.095C170.728 306.095 169.818 307.001 169.818 308.119C169.818 309.237 170.728 310.143 171.851 310.143Z" fill="#5465FF"/>
<path d="M195.49 310.143C196.492 310.146 197.448 309.909 198.253 309.489C198.959 309.124 199.544 308.64 200.029 308.121C200.88 307.208 201.463 306.197 202.001 305.23C202.794 303.776 203.5 302.406 204.3 301.545C204.7 301.111 205.099 300.799 205.555 300.581C206.014 300.366 206.548 300.226 207.308 300.224V298.206L207.14 300.217C207.221 300.224 207.28 300.224 207.308 300.224V298.206L207.14 300.217C208.259 300.309 209.242 299.482 209.334 298.368C209.428 297.254 208.597 296.276 207.478 296.184C207.396 296.177 207.337 296.176 207.308 296.176C206.178 296.175 205.131 296.377 204.207 296.752C203.4 297.077 202.694 297.531 202.095 298.044C201.043 298.946 200.307 300.008 199.695 301.026C198.789 302.555 198.106 304.028 197.42 304.923C197.082 305.375 196.77 305.667 196.489 305.836C196.204 306.001 195.951 306.089 195.489 306.095C194.367 306.095 193.457 307.002 193.457 308.12C193.457 309.237 194.367 310.143 195.49 310.143Z" fill="#5465FF"/>
<path d="M533.964 798.323C533.959 798.725 533.887 798.966 533.764 799.21C533.653 799.422 533.485 799.642 533.223 799.885C532.771 800.312 532.03 800.775 531.136 801.26C529.799 802.001 528.134 802.778 526.657 804.102C525.923 804.766 525.239 805.589 524.755 806.602C524.268 807.613 523.997 808.798 524 810.09C524 811.207 524.91 812.114 526.033 812.114C527.155 812.114 528.065 811.207 528.065 810.09C528.066 809.431 528.175 808.943 528.344 808.526C528.493 808.162 528.693 807.847 528.96 807.537C529.422 806.996 530.112 806.484 530.955 805.986C532.216 805.225 533.778 804.547 535.221 803.488C535.939 802.952 536.641 802.295 537.176 801.422C537.713 800.553 538.035 799.469 538.029 798.323C538.029 797.205 537.118 796.3 535.996 796.3C534.873 796.3 533.964 797.205 533.964 798.323Z" fill="#FE72C6"/>
<path d="M533.964 774.791C533.959 775.191 533.887 775.433 533.764 775.678C533.653 775.89 533.485 776.109 533.223 776.353C532.771 776.779 532.03 777.242 531.136 777.727C529.799 778.469 528.134 779.245 526.657 780.569C525.923 781.232 525.24 782.056 524.755 783.069C524.268 784.08 523.997 785.264 524 786.556C524 787.674 524.91 788.58 526.033 788.58C527.155 788.58 528.065 787.674 528.065 786.556C528.066 785.898 528.175 785.409 528.344 784.993C528.493 784.63 528.693 784.314 528.96 784.003C529.422 783.463 530.112 782.951 530.955 782.452C532.216 781.692 533.778 781.015 535.221 779.954C535.939 779.419 536.641 778.762 537.176 777.888C537.713 777.021 538.035 775.937 538.029 774.791C538.029 773.674 537.118 772.767 535.996 772.767C534.873 772.767 533.964 773.674 533.964 774.791Z" fill="#FE72C6"/>
<path d="M538.029 798.323C538.032 797.326 537.794 796.374 537.372 795.573C537.006 794.87 536.519 794.287 535.998 793.803C535.082 792.957 534.066 792.376 533.094 791.84C531.634 791.051 530.257 790.348 529.392 789.55C528.956 789.154 528.643 788.756 528.424 788.301C528.208 787.845 528.068 787.313 528.065 786.556C528.065 785.439 527.155 784.532 526.033 784.532C524.91 784.532 524 785.439 524 786.556C523.998 787.682 524.201 788.725 524.577 789.643C524.905 790.448 525.36 791.151 525.876 791.747C526.782 792.793 527.849 793.526 528.871 794.136C530.407 795.039 531.887 795.718 532.786 796.401C533.239 796.738 533.533 797.049 533.702 797.328C533.868 797.612 533.957 797.863 533.964 798.323C533.964 799.441 534.873 800.347 535.996 800.347C537.118 800.347 538.029 799.441 538.029 798.323Z" fill="#FE72C6"/>
<path d="M538.029 774.79C538.032 773.793 537.794 772.841 537.372 772.039C537.006 771.337 536.519 770.755 535.998 770.27C535.082 769.425 534.066 768.843 533.094 768.307C531.634 767.518 530.257 766.815 529.392 766.018C528.956 765.621 528.643 765.224 528.424 764.769C528.208 764.312 528.068 763.781 528.065 763.024C528.065 761.906 527.155 761 526.033 761C524.91 761 524 761.906 524 763.024C523.998 764.149 524.201 765.191 524.577 766.111C524.905 766.916 525.36 767.618 525.876 768.214C526.782 769.261 527.849 769.993 528.871 770.604C530.407 771.506 531.887 772.184 532.786 772.868C533.24 773.204 533.533 773.516 533.702 773.794C533.868 774.079 533.957 774.33 533.964 774.79C533.964 775.908 534.873 776.814 535.996 776.814C537.118 776.814 538.029 775.908 538.029 774.79Z" fill="#FE72C6"/>
<path d="M1048.96 173.323C1048.96 173.724 1048.89 173.965 1048.76 174.211C1048.65 174.422 1048.48 174.642 1048.22 174.885C1047.77 175.312 1047.03 175.775 1046.14 176.259C1044.8 177.002 1043.13 177.778 1041.66 179.101C1040.92 179.765 1040.24 180.588 1039.75 181.602C1039.27 182.614 1039 183.797 1039 185.09C1039 186.208 1039.91 187.114 1041.03 187.114C1042.15 187.114 1043.07 186.208 1043.07 185.09C1043.07 184.431 1043.18 183.942 1043.34 183.526C1043.49 183.163 1043.69 182.846 1043.96 182.536C1044.42 181.996 1045.11 181.484 1045.96 180.985C1047.22 180.225 1048.78 179.547 1050.22 178.487C1050.94 177.952 1051.64 177.295 1052.18 176.421C1052.71 175.554 1053.03 174.469 1053.03 173.323C1053.03 172.206 1052.12 171.3 1051 171.3C1049.87 171.3 1048.96 172.206 1048.96 173.323Z" fill="#5465FF"/>
<path d="M1048.96 149.79C1048.96 150.191 1048.89 150.433 1048.76 150.677C1048.65 150.889 1048.48 151.108 1048.22 151.352C1047.77 151.779 1047.03 152.242 1046.14 152.727C1044.8 153.469 1043.13 154.244 1041.66 155.569C1040.92 156.232 1040.24 157.056 1039.75 158.068C1039.27 159.08 1039 160.263 1039 161.556C1039 162.673 1039.91 163.58 1041.03 163.58C1042.15 163.58 1043.07 162.673 1043.07 161.556C1043.07 160.897 1043.18 160.408 1043.34 159.992C1043.49 159.629 1043.69 159.313 1043.96 159.003C1044.42 158.462 1045.11 157.951 1045.96 157.452C1047.22 156.692 1048.78 156.014 1050.22 154.954C1050.94 154.418 1051.64 153.762 1052.18 152.888C1052.71 152.02 1053.03 150.936 1053.03 149.79C1053.03 148.673 1052.12 147.766 1051 147.766C1049.87 147.766 1048.96 148.673 1048.96 149.79Z" fill="#5465FF"/>
<path d="M1053.03 173.323C1053.03 172.326 1052.79 171.373 1052.37 170.573C1052.01 169.869 1051.52 169.287 1051 168.803C1050.08 167.957 1049.07 167.375 1048.1 166.839C1046.63 166.05 1045.26 165.348 1044.39 164.55C1043.96 164.154 1043.64 163.755 1043.42 163.301C1043.21 162.844 1043.07 162.313 1043.07 161.556C1043.07 160.438 1042.16 159.532 1041.03 159.532C1039.91 159.532 1039 160.438 1039 161.556C1039 162.681 1039.2 163.724 1039.58 164.643C1039.91 165.447 1040.36 166.15 1040.88 166.746C1041.78 167.793 1042.85 168.526 1043.87 169.136C1045.41 170.038 1046.89 170.717 1047.79 171.401C1048.24 171.737 1048.53 172.048 1048.7 172.327C1048.87 172.612 1048.96 172.863 1048.96 173.323C1048.96 174.44 1049.87 175.347 1051 175.347C1052.12 175.347 1053.03 174.44 1053.03 173.323Z" fill="#5465FF"/>
<path d="M1053.03 149.79C1053.03 148.793 1052.79 147.841 1052.37 147.04C1052.01 146.337 1051.52 145.755 1051 145.271C1050.08 144.425 1049.07 143.844 1048.1 143.308C1046.63 142.519 1045.26 141.815 1044.39 141.018C1043.96 140.621 1043.64 140.224 1043.42 139.769C1043.21 139.312 1043.07 138.781 1043.07 138.024C1043.07 136.907 1042.16 136 1041.03 136C1039.91 136 1039 136.907 1039 138.024C1039 139.15 1039.2 140.192 1039.58 141.111C1039.91 141.916 1040.36 142.618 1040.88 143.215C1041.78 144.261 1042.85 144.994 1043.87 145.604C1045.41 146.507 1046.89 147.185 1047.79 147.868C1048.24 148.205 1048.53 148.517 1048.7 148.795C1048.87 149.079 1048.96 149.33 1048.96 149.79C1048.96 150.908 1049.87 151.814 1051 151.814C1052.12 151.814 1053.03 150.908 1053.03 149.79Z" fill="#5465FF"/>
<path d="M32.47 23.9851L53.0924 3.45458C53.8861 2.66455 53.8861 1.38315 53.0924 0.593115C52.2987 -0.197733 51.0115 -0.197733 50.2177 0.593115L29.5953 21.1236C28.8016 21.9137 28.8016 23.195 29.5953 23.9851C30.389 24.7759 31.6763 24.7759 32.47 23.9851Z" fill="#D57CFF"/>
<path d="M1338.47 593.985L1359.09 573.455C1359.89 572.664 1359.89 571.383 1359.09 570.593C1358.3 569.802 1357.01 569.802 1356.22 570.593L1335.6 591.124C1334.8 591.914 1334.8 593.195 1335.6 593.985C1336.39 594.776 1337.68 594.776 1338.47 593.985Z" fill="#5465FF"/>
<path d="M1012.88 797.665L1018.21 788.452H1019.15L1014.29 796.854L1030.64 796.841L1046.99 796.833L1038.8 782.741L1039.15 782.539L1039.51 782.337L1048.4 797.642L1030.64 797.65L1012.88 797.665ZM1020.56 784.404L1021.75 782.345L1023.08 780.041L1023.55 780.85L1022.46 782.75L1021.5 784.403L1020.56 784.404ZM1038.8 782.741L1030.62 768.647L1025.9 776.8L1025.43 775.991L1030.61 767.028L1039.51 782.337L1039.15 782.539L1038.8 782.741Z" fill="#ADADAD"/>
<path d="M1018.21 788.452L1020.56 784.404L1021.5 784.403L1019.15 788.452H1018.21ZM1023.56 780.849L1023.09 780.041L1025.43 775.99L1025.9 776.8L1023.56 780.849Z" fill="#FF5833"/>
<path d="M407.93 369.43L395.365 356.933L392.324 353.91L392.566 353.008L395.94 356.36L407.508 367.866L411.727 352.14L415.951 336.411L400.164 340.638L395.555 341.871L395.798 340.968L399.953 339.856L417.099 335.265L412.514 352.349L407.93 369.43ZM389.002 350.608L382.799 344.443L391.264 342.18L391.022 343.083L384.37 344.861L389.244 349.706L389.002 350.608Z" fill="#ADADAD"/>
<path d="M392.324 353.91L389.002 350.608L389.244 349.706L392.567 353.007L392.324 353.91ZM391.022 343.083L391.264 342.18L395.798 340.967L395.555 341.871L391.022 343.083Z" fill="#5465FF"/>
<path d="M1008.52 373.005C1002.2 373.005 996.904 368.627 995.527 362.75C995.783 362.648 996.036 362.539 996.285 362.423C996.809 364.783 998.004 366.891 999.661 368.542C1001.93 370.8 1005.06 372.196 1008.52 372.196C1011.99 372.196 1015.12 370.8 1017.38 368.542C1019.65 366.282 1021.05 363.166 1021.05 359.719C1021.05 356.273 1019.65 353.156 1017.38 350.897C1015.12 348.638 1011.99 347.243 1008.52 347.243C1007.26 347.243 1006.05 347.428 1004.9 347.772C1004.88 347.497 1004.85 347.224 1004.82 346.953C1005.99 346.615 1007.24 346.434 1008.52 346.434C1015.89 346.434 1021.87 352.381 1021.87 359.719C1021.87 367.057 1015.89 373.005 1008.52 373.005ZM995.241 358.414C995.629 354.449 997.767 350.996 1000.88 348.829C1000.88 348.854 1000.88 348.88 1000.88 348.905C1000.88 349.229 1000.86 349.549 1000.84 349.865C1000.42 350.185 1000.03 350.529 999.661 350.897C997.806 352.744 996.531 355.164 996.127 357.869C995.841 358.064 995.545 358.246 995.241 358.414Z" fill="#ADADAD"/>
<path d="M995.526 362.75C995.298 361.777 995.177 360.762 995.177 359.719C995.177 359.279 995.199 358.844 995.241 358.414C995.545 358.246 995.841 358.064 996.127 357.869C996.037 358.473 995.99 359.091 995.99 359.719C995.99 360.648 996.092 361.553 996.285 362.423C996.036 362.539 995.782 362.648 995.526 362.75ZM1000.83 349.865C1000.86 349.549 1000.88 349.229 1000.88 348.905C1000.88 348.88 1000.88 348.854 1000.88 348.829C1002.06 348.002 1003.39 347.363 1004.82 346.953C1004.85 347.224 1004.88 347.497 1004.9 347.773C1003.41 348.219 1002.04 348.936 1000.83 349.865Z" fill="#5465FF"/>
<path d="M57.751 725.719H56.938C56.938 722.272 55.5419 719.155 53.284 716.896C51.0252 714.638 47.9095 713.243 44.4646 713.243C43.1837 713.243 41.9479 713.436 40.7851 713.794C40.7648 713.519 40.7369 713.245 40.7016 712.974C41.8949 712.622 43.1577 712.433 44.4646 712.433C51.8033 712.433 57.751 718.382 57.751 725.719ZM31.9905 725.719H31.1777C31.1777 721.253 33.381 717.302 36.7604 714.893C36.7604 714.897 36.7604 714.902 36.7604 714.906C36.7604 715.211 36.8283 715.501 36.9503 715.76C36.4892 716.108 36.0534 716.488 35.6453 716.896C33.387 719.155 31.9908 722.272 31.9905 725.719Z" fill="#ADADAD"/>
<path d="M36.9497 715.76C36.8277 715.5 36.7598 715.211 36.7598 714.905C36.7598 714.901 36.7598 714.897 36.7598 714.893C37.9439 714.05 39.2724 713.395 40.701 712.974C40.7363 713.245 40.7642 713.519 40.7845 713.794C39.3852 714.226 38.0912 714.897 36.9497 715.76Z" fill="#5465FF"/>
<path d="M473.524 82.8884C466.154 82.8884 460.179 76.9672 460.179 69.6602C460.179 62.3539 466.154 56.4335 473.524 56.4335V57.2429C470.061 57.2429 466.931 58.6328 464.661 60.8807C462.393 63.1294 460.992 66.2313 460.992 69.6602C460.992 73.0899 462.393 76.1917 464.661 78.4412C466.931 80.6891 470.061 82.079 473.524 82.079V82.8884Z" fill="#ADADAD"/>
<path d="M55.7283 411.866H29.1787V402.671H29.9918V411.056H54.9152V386.243H38.8023V385.433H55.7283V411.866ZM29.9918 398.624H29.1787V385.838V385.433H34.7369V386.243H29.9918V398.624Z" fill="#ADADAD"/>
<path d="M29.9918 402.671H29.1787V398.624H29.9918V402.671ZM38.8023 386.243H34.7369V385.433H38.8023V386.243Z" fill="#2AB458"/>
<path d="M190.39 319.338C189.251 319.338 188.323 318.945 187.581 318.33C186.835 317.712 186.261 316.888 185.734 316C184.688 314.22 183.81 312.167 182.389 310.86C181.44 309.989 180.281 309.422 178.584 309.418V308.609C178.587 308.609 178.59 308.609 178.593 308.609C180.004 308.609 181.149 308.982 182.078 309.59C183.011 310.198 183.725 311.029 184.331 311.926C185.536 313.723 186.35 315.808 187.502 317.118C188.273 317.99 189.126 318.522 190.403 318.529V319.338C190.399 319.338 190.394 319.338 190.39 319.338Z" fill="#ADADAD"/>
<path d="M214.028 319.338C212.889 319.338 211.96 318.945 211.219 318.33C210.472 317.712 209.898 316.889 209.372 316C208.326 314.221 207.448 312.167 206.026 310.861C205.078 309.99 203.92 309.423 202.223 309.419V308.609C202.226 308.609 202.229 308.609 202.232 308.609C203.642 308.609 204.787 308.983 205.716 309.591C206.649 310.199 207.363 311.029 207.969 311.927C209.174 313.723 209.988 315.808 211.139 317.118C211.911 317.99 212.763 318.522 214.041 318.529V319.338C214.037 319.338 214.032 319.338 214.028 319.338Z" fill="#ADADAD"/>
<path d="M190.424 319.338C190.417 319.338 190.41 319.338 190.403 319.338V318.529C191.366 318.525 192.076 318.221 192.707 317.706C193.335 317.19 193.867 316.444 194.372 315.589C195.388 313.882 196.271 311.75 197.865 310.267C198.924 309.282 200.326 308.609 202.204 308.609C202.21 308.609 202.217 308.609 202.223 308.609V309.419C200.949 309.421 199.982 309.744 199.174 310.268C198.368 310.793 197.722 311.532 197.152 312.378C196.005 314.069 195.202 316.168 193.919 317.649C193.072 318.631 191.945 319.338 190.424 319.338Z" fill="#ADADAD"/>
<path d="M214.061 319.338C214.055 319.338 214.048 319.338 214.041 319.338V318.529C215.003 318.525 215.714 318.221 216.344 317.705C216.972 317.189 217.504 316.444 218.009 315.589C219.024 313.882 219.907 311.75 221.502 310.267C222.56 309.281 223.962 308.609 225.84 308.609C225.846 308.609 225.853 308.609 225.859 308.609H225.86L225.892 308.61L225.86 309.021V309.419H225.859C224.585 309.421 223.618 309.744 222.811 310.268C222.005 310.793 221.359 311.532 220.789 312.378C219.642 314.069 218.839 316.167 217.557 317.648C216.709 318.631 215.583 319.338 214.061 319.338Z" fill="#ADADAD"/>
<path d="M544.991 820.904H544.178C544.176 819.496 544.552 818.353 545.164 817.426C545.775 816.497 546.609 815.787 547.51 815.184C549.315 813.983 551.409 813.172 552.724 812.027C553.601 811.258 554.135 810.41 554.141 809.138H554.954C554.958 810.277 554.562 811.206 553.941 811.946C553.322 812.69 552.494 813.262 551.601 813.786C549.814 814.827 547.752 815.702 546.439 817.117C545.564 818.06 544.996 819.214 544.991 820.904Z" fill="#ADADAD"/>
<path d="M544.991 797.37H544.178C544.176 795.962 544.552 794.819 545.164 793.892C545.775 792.964 546.609 792.253 547.51 791.65C549.315 790.45 551.409 789.639 552.724 788.494C553.601 787.726 554.135 786.876 554.141 785.604H554.954C554.958 786.744 554.562 787.673 553.941 788.414C553.322 789.157 552.494 789.728 551.601 790.253C549.814 791.294 547.752 792.168 546.439 793.583C545.564 794.528 544.996 795.681 544.991 797.37Z" fill="#ADADAD"/>
<path d="M554.954 819.137H554.141C554.138 818.179 553.833 817.472 553.315 816.844C552.796 816.219 552.048 815.689 551.189 815.186C549.473 814.175 547.333 813.296 545.844 811.709C544.85 810.651 544.173 809.249 544.178 807.37H544.991C544.992 808.639 545.317 809.602 545.844 810.405C546.371 811.208 547.114 811.851 547.963 812.419C549.662 813.561 551.77 814.36 553.257 815.637C554.249 816.485 554.961 817.613 554.954 819.137Z" fill="#ADADAD"/>
<path d="M554.954 795.604H554.141C554.138 794.646 553.833 793.939 553.315 793.311C552.796 792.686 552.048 792.156 551.189 791.654C549.473 790.643 547.333 789.763 545.844 788.176C544.85 787.119 544.173 785.717 544.178 783.838H544.991C544.992 785.106 545.317 786.07 545.844 786.873C546.371 787.675 547.114 788.319 547.963 788.887C549.662 790.029 551.77 790.827 553.257 792.104C554.249 792.952 554.961 794.08 554.954 795.604Z" fill="#ADADAD"/>
<path d="M1059.99 205.904H1059.18C1059.18 204.496 1059.55 203.352 1060.16 202.425C1060.77 201.497 1061.61 200.786 1062.51 200.183C1064.31 198.983 1066.41 198.172 1067.72 197.026C1068.6 196.258 1069.13 195.41 1069.14 194.137H1069.95C1069.96 195.277 1069.56 196.206 1068.94 196.947C1068.32 197.69 1067.49 198.261 1066.6 198.785C1064.81 199.827 1062.75 200.701 1061.44 202.116C1060.56 203.06 1060 204.214 1059.99 205.904Z" fill="#ADADAD"/>
<path d="M1059.99 182.37H1059.18C1059.18 180.961 1059.55 179.818 1060.16 178.892C1060.77 177.963 1061.61 177.252 1062.51 176.649C1064.31 175.45 1066.41 174.639 1067.72 173.493C1068.6 172.725 1069.13 171.876 1069.14 170.604H1069.95C1069.96 171.744 1069.56 172.672 1068.94 173.414C1068.32 174.157 1067.49 174.729 1066.6 175.252C1064.81 176.293 1062.75 177.168 1061.44 178.583C1060.56 179.527 1060 180.681 1059.99 182.37Z" fill="#ADADAD"/>
<path d="M1069.95 194.137H1069.14C1069.14 193.179 1068.83 192.472 1068.32 191.844C1067.8 191.219 1067.05 190.689 1066.19 190.187C1064.47 189.175 1062.33 188.295 1060.84 186.708C1059.85 185.651 1059.17 184.249 1059.18 182.37H1059.99C1059.99 183.638 1060.32 184.601 1060.84 185.405C1061.37 186.207 1062.11 186.851 1062.96 187.418C1064.66 188.561 1066.77 189.359 1068.26 190.637C1069.25 191.484 1069.96 192.613 1069.95 194.137Z" fill="#ADADAD"/>
<path d="M1069.95 170.604H1069.14C1069.14 169.647 1068.83 168.939 1068.32 168.311C1067.8 167.686 1067.05 167.157 1066.19 166.654C1064.47 165.643 1062.33 164.763 1060.84 163.177C1059.85 162.119 1059.17 160.717 1059.18 158.838H1059.99C1059.99 160.106 1060.32 161.07 1060.84 161.873C1061.37 162.675 1062.11 163.318 1062.96 163.886C1064.66 165.029 1066.77 165.828 1068.26 167.104C1069.25 167.952 1069.96 169.08 1069.95 170.604Z" fill="#ADADAD"/>
<path d="M49.872 43.6548L49.2969 43.0826L69.9198 22.5513L70.4946 23.1236L49.872 43.6548Z" fill="#ADADAD"/>
<path d="M1355.87 613.655L1355.3 613.083L1375.92 592.551L1376.49 593.124L1355.87 613.655Z" fill="#ADADAD"/>
<path d="M1153.62 530.514L1152.54 528.801C1152.03 529.121 1151.47 529.269 1150.92 529.269C1150.41 529.27 1149.9 529.142 1149.45 528.902C1149 528.66 1148.62 528.31 1148.32 527.844L1148.32 527.842C1148 527.331 1147.85 526.778 1147.85 526.222C1147.85 525.716 1147.98 525.211 1148.22 524.766C1148.46 524.32 1148.81 523.933 1149.28 523.639C1149.79 523.321 1150.34 523.173 1150.9 523.172C1151.41 523.172 1151.92 523.299 1152.37 523.54C1152.82 523.783 1153.21 524.132 1153.5 524.597L1153.5 524.599C1153.82 525.109 1153.97 525.66 1153.97 526.216C1153.97 526.723 1153.84 527.229 1153.6 527.675C1153.36 528.121 1153.01 528.508 1152.54 528.801L1152.54 528.801L1153.62 530.514L1154.71 532.226C1155.78 531.556 1156.62 530.636 1157.18 529.597C1157.74 528.556 1158.04 527.395 1158.04 526.216C1158.04 524.927 1157.68 523.61 1156.94 522.442L1156.94 522.444C1156.27 521.376 1155.35 520.54 1154.3 519.979C1153.26 519.417 1152.09 519.125 1150.9 519.124C1149.61 519.123 1148.29 519.479 1147.11 520.214C1146.04 520.883 1145.2 521.802 1144.64 522.842C1144.08 523.882 1143.78 525.044 1143.78 526.222C1143.78 527.513 1144.14 528.83 1144.88 529.999L1144.88 529.996C1145.55 531.064 1146.47 531.901 1147.52 532.462C1148.56 533.024 1149.73 533.317 1150.92 533.317C1152.21 533.318 1153.53 532.962 1154.71 532.228L1154.71 532.226L1153.62 530.514Z" fill="#5465FF"/>
<path d="M620.842 239.39L619.761 237.677C619.247 237.997 618.692 238.144 618.133 238.145C617.623 238.146 617.117 238.018 616.669 237.778C616.221 237.536 615.833 237.186 615.539 236.72L615.537 236.718C615.215 236.207 615.066 235.654 615.065 235.098C615.065 234.592 615.193 234.087 615.435 233.642C615.678 233.196 616.029 232.809 616.497 232.515C617.009 232.197 617.562 232.049 618.121 232.048C618.631 232.048 619.139 232.175 619.587 232.416C620.036 232.659 620.424 233.008 620.718 233.473L620.72 233.475C621.041 233.985 621.189 234.536 621.19 235.092C621.19 235.599 621.062 236.105 620.82 236.551C620.576 236.997 620.226 237.384 619.759 237.677L619.761 237.677L620.842 239.39L621.925 241.102C622.996 240.432 623.835 239.512 624.398 238.473C624.961 237.432 625.255 236.271 625.255 235.092C625.257 233.802 624.899 232.485 624.16 231.318L624.161 231.32C623.487 230.252 622.564 229.416 621.518 228.855C620.473 228.293 619.306 228.001 618.121 228C616.826 227.999 615.504 228.355 614.332 229.09C613.261 229.759 612.421 230.678 611.859 231.718C611.294 232.758 611 233.92 611 235.098C610.999 236.389 611.357 237.706 612.097 238.875L612.095 238.872C612.768 239.94 613.691 240.777 614.736 241.338C615.782 241.9 616.949 242.193 618.133 242.193C619.428 242.194 620.75 241.838 621.924 241.104L621.925 241.102L620.842 239.39Z" fill="#2AB458"/>
<path d="M291.842 596.39L290.761 594.677C290.247 594.997 289.692 595.144 289.133 595.145C288.623 595.146 288.117 595.018 287.669 594.778C287.221 594.536 286.833 594.186 286.539 593.72L286.537 593.718C286.215 593.207 286.066 592.654 286.065 592.098C286.065 591.592 286.193 591.087 286.435 590.642C286.678 590.196 287.029 589.809 287.497 589.515C288.009 589.197 288.562 589.049 289.121 589.048C289.631 589.048 290.139 589.175 290.587 589.416C291.036 589.659 291.424 590.008 291.718 590.473L291.72 590.475C292.041 590.985 292.189 591.536 292.19 592.092C292.19 592.599 292.062 593.105 291.82 593.551C291.576 593.997 291.226 594.384 290.759 594.677L290.761 594.677L291.842 596.39L292.925 598.102C293.996 597.432 294.835 596.512 295.398 595.473C295.961 594.432 296.255 593.271 296.255 592.092C296.257 590.802 295.899 589.485 295.16 588.318L295.161 588.32C294.487 587.252 293.564 586.416 292.518 585.855C291.473 585.293 290.306 585.001 289.121 585C287.826 584.999 286.504 585.355 285.332 586.09C284.261 586.759 283.421 587.678 282.859 588.718C282.294 589.758 282 590.92 282 592.098C281.999 593.389 282.357 594.706 283.097 595.875L283.095 595.872C283.768 596.94 284.691 597.777 285.736 598.338C286.782 598.9 287.949 599.193 289.133 599.193C290.428 599.194 291.75 598.838 292.924 598.104L292.925 598.102L291.842 596.39Z" fill="#FE72C6"/>
<path d="M1285.84 89.39L1284.76 87.6764C1284.25 87.9969 1283.69 88.1442 1283.13 88.145C1282.62 88.1459 1282.12 88.018 1281.67 87.7775C1281.22 87.5355 1280.83 87.1858 1280.54 86.7196L1280.54 86.7179C1280.22 86.2063 1280.07 85.6535 1280.07 85.0974C1280.07 84.5915 1280.19 84.0872 1280.43 83.642C1280.68 83.1959 1281.03 82.809 1281.5 82.5152C1282.01 82.1963 1282.56 82.049 1283.12 82.0473C1283.63 82.0473 1284.14 82.1744 1284.59 82.4156C1285.04 82.6585 1285.42 83.0074 1285.72 83.4728L1285.72 83.4744C1286.04 83.9844 1286.19 84.5356 1286.19 85.0917C1286.19 85.5985 1286.06 86.1044 1285.82 86.5504C1285.58 86.9972 1285.23 87.3841 1284.76 87.6772L1284.76 87.6764L1285.84 89.39L1286.93 91.102C1288 90.4318 1288.84 89.5122 1289.4 88.4729C1289.96 87.4319 1290.25 86.2703 1290.25 85.0917C1290.26 83.8022 1289.9 82.4852 1289.16 81.318L1289.16 81.3196C1288.49 80.2519 1287.56 79.4158 1286.52 78.8548C1285.47 78.293 1284.31 78.0008 1283.12 78C1281.83 77.9992 1280.5 78.3546 1279.33 79.0896C1278.26 79.759 1277.42 80.6777 1276.86 81.7179C1276.29 82.758 1276 83.9196 1276 85.0974C1276 86.3885 1276.36 87.7055 1277.1 88.8744L1277.1 88.8719C1277.77 89.9396 1278.69 90.7766 1279.74 91.3376C1280.78 91.9002 1281.95 92.1924 1283.13 92.1924C1284.43 92.194 1285.75 91.8378 1286.92 91.1036L1286.93 91.102L1285.84 89.39Z" fill="#D57CFF"/>
</svg>
