<svg width="24" height="25" viewBox="0 0 24 25" fill="none" xmlns="http://www.w3.org/2000/svg">
<path d="M2 12.9853L11.6422 17.8064C11.7734 17.872 11.839 17.9048 11.9078 17.9177C11.9687 17.9291 12.0313 17.9291 12.0922 17.9177C12.161 17.9048 12.2266 17.872 12.3578 17.8064L22 12.9853M2 17.9853L11.6422 22.8064C11.7734 22.872 11.839 22.9048 11.9078 22.9177C11.9687 22.9291 12.0313 22.9291 12.0922 22.9177C12.161 22.9048 12.2266 22.872 12.3578 22.8064L22 17.9853M2 7.98529L11.6422 3.16418C11.7734 3.09859 11.839 3.06579 11.9078 3.05289C11.9687 3.04145 12.0313 3.04145 12.0922 3.05289C12.161 3.06579 12.2266 3.09859 12.3578 3.16418L22 7.98529L12.3578 12.8064C12.2266 12.872 12.161 12.9048 12.0922 12.9177C12.0313 12.9291 11.9687 12.9291 11.9078 12.9177C11.839 12.9048 11.7734 12.872 11.6422 12.8064L2 7.98529Z" stroke="#D0D5DD" stroke-width="2" stroke-linecap="round" stroke-linejoin="round"/>
</svg>
