<svg width="24" height="25" viewBox="0 0 24 25" fill="none" xmlns="http://www.w3.org/2000/svg">
<path d="M12 2.98535C13.3132 2.98535 14.6136 3.24401 15.8268 3.74656C17.0401 4.2491 18.1425 4.9857 19.0711 5.91429C19.9997 6.84287 20.7363 7.94527 21.2388 9.15852C21.7413 10.3718 22 11.6721 22 12.9854M12 2.98535V12.9854M12 2.98535C6.47715 2.98535 2 7.4625 2 12.9854C2 18.5082 6.47715 22.9854 12 22.9854C17.5228 22.9854 22 18.5082 22 12.9854M12 2.98535C17.5228 2.98535 22 7.46251 22 12.9854M22 12.9854L12 12.9854M22 12.9854C22 14.5635 21.6265 16.1192 20.9101 17.5253C20.1936 18.9314 19.1546 20.1479 17.8779 21.0755L12 12.9854" stroke="#D0D5DD" stroke-width="2" stroke-linecap="round" stroke-linejoin="round"/>
</svg>
